<svg id="visual" viewBox="0 0 1370 250" width="1370" height="250" xmlns="http://www.w3.org/2000/svg" xmlns:xlink="http://www.w3.org/1999/xlink" version="1.1"><rect x="0" y="0" width="1370" height="250" fill="#001220"></rect><defs><linearGradient id="grad1_0" x1="81.8%" y1="100%" x2="100%" y2="0%"><stop offset="-59.6%" stop-color="#fbae3c" stop-opacity="1"></stop><stop offset="159.60000000000002%" stop-color="#fbae3c" stop-opacity="1"></stop></linearGradient></defs><defs><linearGradient id="grad1_1" x1="81.8%" y1="100%" x2="100%" y2="0%"><stop offset="-59.6%" stop-color="#fbae3c" stop-opacity="1"></stop><stop offset="159.60000000000002%" stop-color="#001220" stop-opacity="1"></stop></linearGradient></defs><defs><linearGradient id="grad2_0" x1="0%" y1="100%" x2="18.2%" y2="0%"><stop offset="-59.6%" stop-color="#fbae3c" stop-opacity="1"></stop><stop offset="159.60000000000002%" stop-color="#fbae3c" stop-opacity="1"></stop></linearGradient></defs><defs><linearGradient id="grad2_1" x1="0%" y1="100%" x2="18.2%" y2="0%"><stop offset="-59.6%" stop-color="#001220" stop-opacity="1"></stop><stop offset="159.60000000000002%" stop-color="#fbae3c" stop-opacity="1"></stop></linearGradient></defs><g transform="translate(1370, 250)"><path d="M-250 0C-239.4 -23.7 -228.8 -47.4 -219.7 -71.4C-210.6 -95.3 -202.9 -119.6 -187.7 -136.4C-172.4 -153.2 -149.6 -162.5 -131.1 -180.4C-112.6 -198.3 -98.4 -224.7 -77.3 -237.8C-56.1 -250.8 -28.1 -250.4 0 -250L0 0Z" fill="#96446e"></path><path d="M-125 0C-119.7 -11.9 -114.4 -23.7 -109.8 -35.7C-105.3 -47.7 -101.5 -59.8 -93.8 -68.2C-86.2 -76.6 -74.8 -81.3 -65.5 -90.2C-56.3 -99.2 -49.2 -112.4 -38.6 -118.9C-28.1 -125.4 -14 -125.2 0 -125L0 0Z" fill="#fbae3c"></path></g><g transform="translate(0, 0)"><path d="M250 0C233.4 22.9 216.8 45.7 203.5 66.1C190.3 86.5 180.4 104.4 169.9 123.4C159.4 142.5 148.2 162.6 133.4 183.6C118.6 204.7 100.1 226.6 77.3 237.8C54.4 249 27.2 249.5 0 250L0 0Z" fill="#96446e"></path><path d="M125 0C116.7 11.4 108.4 22.9 101.8 33.1C95.1 43.3 90.2 52.2 84.9 61.7C79.7 71.2 74.1 81.3 66.7 91.8C59.3 102.3 50.1 113.3 38.6 118.9C27.2 124.5 13.6 124.7 0 125L0 0Z" fill="#fbae3c"></path></g></svg>